<?xml version="1.0" standalone="no"?>
<!DOCTYPE svg PUBLIC "-//W3C//DTD SVG 20010904//EN"
 "http://www.w3.org/TR/2001/REC-SVG-20010904/DTD/svg10.dtd">
<svg version="1.0" xmlns="http://www.w3.org/2000/svg"
 width="1024.000000pt" height="1024.000000pt" viewBox="0 0 1024.000000 1024.000000"
 preserveAspectRatio="xMidYMid meet">

<g transform="translate(0.000000,1024.000000) scale(0.100000,-0.100000)"
fill="#000000" stroke="none">
<path d="M4985 9860 c-86 -14 -189 -47 -272 -87 -54 -26 -104 -64 -190 -144
-179 -165 -244 -192 -493 -203 -162 -7 -262 -30 -377 -86 -292 -143 -482 -461
-483 -805 -1 -186 -43 -288 -174 -424 -51 -53 -112 -125 -134 -160 -171 -263
-176 -657 -12 -932 24 -41 81 -110 135 -164 146 -147 168 -207 194 -535 5 -69
17 -151 25 -182 51 -188 226 -400 421 -509 121 -67 208 -90 390 -100 267 -15
337 -41 473 -178 100 -100 154 -140 257 -187 226 -105 524 -105 750 0 104 48
157 87 258 187 137 138 203 162 477 178 224 13 349 58 501 179 225 178 339
410 339 690 1 202 43 309 180 457 50 53 107 123 127 154 146 228 175 543 72
799 -41 105 -104 196 -209 306 -128 135 -169 237 -170 422 -1 345 -190 660
-483 804 -115 56 -215 79 -377 86 -244 11 -315 38 -460 179 -139 135 -238 192
-409 236 -88 23 -267 32 -356 19z m8 -827 c9 -9 17 -20 17 -25 0 -14 -30 -9
-36 7 -4 8 -18 15 -34 15 -60 0 -61 -50 -2 -65 48 -11 72 -33 72 -65 0 -55
-88 -82 -130 -40 -24 24 -26 40 -5 40 8 0 15 -4 15 -10 0 -16 41 -32 67 -26
19 5 24 12 21 34 -2 22 -11 29 -46 41 -53 16 -79 50 -62 81 22 41 84 47 123
13z m-223 7 c0 -5 -25 -10 -55 -10 l-55 0 0 -36 c0 -35 1 -35 38 -34 59 3 74
1 67 -10 -3 -5 -28 -10 -56 -10 l-49 0 0 -35 0 -35 55 0 c42 0 55 -3 55 -15 0
-12 -14 -15 -70 -15 l-70 0 0 105 0 105 70 0 c40 0 70 -4 70 -10z m480 0 c0
-5 -16 -10 -35 -10 l-35 0 0 -95 c0 -78 -3 -95 -15 -95 -12 0 -15 17 -15 95
l0 95 -30 0 c-16 0 -30 5 -30 10 0 6 33 10 80 10 47 0 80 -4 80 -10z m218 -2
c15 -15 16 -60 2 -74 -8 -8 -6 -15 5 -24 21 -17 19 -56 -5 -80 -15 -15 -33
-20 -75 -20 l-55 0 0 105 0 105 58 0 c32 0 63 -5 70 -12z m142 -173 c0 -16 -6
-25 -15 -25 -15 0 -21 31 -8 43 13 14 23 6 23 -18z m275 -325 c345 -30 558
-176 615 -419 18 -76 8 -221 -19 -293 -45 -117 -147 -219 -264 -265 l-69 -27
59 -16 c183 -50 321 -188 367 -366 20 -79 21 -232 0 -309 -45 -176 -189 -314
-396 -383 -157 -52 -190 -53 -1113 -49 -764 3 -856 5 -914 20 -332 89 -501
278 -501 559 0 112 14 176 57 265 60 124 183 223 327 263 l58 16 -46 18 c-83
32 -133 66 -192 129 -84 91 -124 196 -124 327 0 297 228 495 610 530 126 11
1417 11 1545 0z m-1027 -2472 c7 -7 12 -26 12 -44 0 -25 -9 -39 -45 -68 -25
-21 -45 -42 -45 -47 0 -5 23 -9 50 -9 28 0 50 -4 50 -10 0 -6 -28 -10 -65 -10
-82 0 -84 13 -15 83 52 53 58 65 38 85 -18 18 -46 14 -58 -8 -12 -22 -30 -27
-30 -8 0 38 79 65 108 36z m226 -10 c10 -14 16 -44 16 -78 0 -71 -19 -100 -65
-100 -45 0 -67 33 -67 100 0 67 22 100 67 100 24 0 39 -7 49 -22z m176 -78 c0
-82 -3 -100 -15 -100 -12 0 -15 16 -15 81 0 76 -1 81 -20 76 -27 -7 -25 8 2
27 44 31 48 23 48 -84z m216 75 c21 -33 11 -58 -42 -101 -24 -20 -44 -40 -44
-45 0 -5 23 -9 50 -9 28 0 50 -4 50 -10 0 -6 -28 -10 -65 -10 -82 0 -84 14
-15 82 28 27 50 53 50 58 0 41 -51 56 -70 20 -12 -22 -30 -27 -30 -8 0 48 88
66 116 23z"/>
<path d="M5360 9000 c0 -31 7 -35 60 -30 60 5 41 60 -20 60 -38 0 -40 -2 -40
-30z"/>
<path d="M5360 8906 c0 -38 10 -44 60 -36 27 4 36 10 38 29 5 29 -12 41 -60
41 -36 0 -38 -1 -38 -34z"/>
<path d="M4357 8179 c-48 -11 -127 -51 -149 -76 -34 -37 -58 -107 -58 -169 0
-113 66 -200 184 -241 44 -16 88 -18 316 -18 l265 0 3 225 c2 124 0 240 -3
258 l-6 32 -257 -1 c-141 -1 -274 -5 -295 -10z"/>
<path d="M5330 7930 l0 -262 268 4 c244 3 271 6 320 25 77 31 121 69 148 127
45 96 28 213 -41 282 -72 72 -101 77 -417 82 l-278 3 0 -261z"/>
<path d="M4405 7324 c-185 -22 -299 -98 -326 -219 -31 -141 43 -260 197 -317
54 -20 82 -22 345 -26 l286 -4 7 32 c8 41 8 453 0 503 l-7 37 -236 -1 c-130
-1 -249 -4 -266 -5z"/>
<path d="M5330 7044 l0 -286 288 4 c320 4 352 10 449 80 68 49 98 113 98 208
0 64 -4 82 -28 122 -47 81 -140 130 -281 148 -39 5 -173 10 -298 10 l-228 0 0
-286z"/>
<path d="M5000 6024 c-13 -38 -8 -88 11 -111 39 -46 83 32 60 107 -9 32 -16
40 -36 40 -18 0 -26 -8 -35 -36z"/>
<path d="M1068 4501 c-74 -15 -163 -69 -229 -139 -63 -66 -99 -128 -135 -227
-28 -79 -26 -258 4 -355 41 -131 121 -257 231 -365 28 -27 51 -56 51 -65 0 -8
-23 -28 -51 -43 -141 -80 -313 -240 -403 -375 -98 -148 -153 -335 -143 -487 9
-141 62 -244 158 -306 52 -33 56 -34 159 -34 93 0 113 3 175 29 267 110 465
402 584 862 8 28 18 43 32 47 22 6 173 -36 194 -53 7 -6 15 -33 18 -60 16
-131 73 -183 176 -161 65 13 147 64 192 121 18 22 37 40 43 40 6 0 25 -28 41
-62 27 -56 35 -65 78 -82 47 -20 50 -20 115 -3 37 10 106 38 155 62 48 25 93
45 100 45 6 0 24 -21 39 -46 42 -69 95 -89 228 -88 77 0 127 7 190 24 113 31
257 90 342 140 37 23 73 38 78 35 6 -4 19 -23 29 -43 23 -45 84 -104 130 -127
59 -30 140 -16 266 44 59 28 133 67 166 87 l59 35 0 105 c0 57 -4 104 -8 104
-4 0 -42 -26 -84 -58 -91 -70 -200 -129 -255 -138 -49 -8 -96 14 -117 55 -37
70 -45 279 -16 382 15 52 50 100 90 123 32 19 49 21 180 18 156 -2 185 4 206
47 17 32 0 66 -41 86 -24 11 -64 15 -140 15 l-108 0 6 33 c3 17 33 82 66 142
90 162 104 218 76 311 -32 108 -131 152 -232 103 -109 -53 -198 -213 -252
-454 -11 -48 -24 -92 -30 -98 -7 -7 -53 -11 -114 -12 -82 0 -108 -4 -131 -18
-15 -10 -26 -25 -24 -35 5 -26 64 -60 126 -72 31 -6 68 -14 82 -18 l25 -7 6
-190 c3 -105 2 -200 -2 -211 -14 -39 -251 -163 -285 -150 -10 4 -14 22 -14 60
0 29 -11 98 -26 152 -14 54 -23 109 -19 121 3 12 25 45 49 72 50 57 64 98 44
138 -18 37 -55 55 -98 47 -66 -11 -116 -50 -182 -142 -108 -149 -420 -456
-511 -504 -97 -49 -101 3 -32 425 32 194 23 217 -82 217 -90 0 -113 -34 -137
-200 -33 -228 -77 -373 -127 -415 -96 -80 -114 30 -54 332 39 196 42 244 19
267 -22 23 -72 19 -119 -7 -67 -38 -98 -117 -135 -344 -10 -62 -15 -73 -31
-73 -23 0 -123 49 -157 76 l-23 19 11 225 c20 402 -11 689 -87 819 -58 100
-146 172 -239 196 -62 16 -87 17 -146 6z m153 -223 c28 -15 47 -37 64 -72 52
-107 70 -390 40 -623 -19 -139 -24 -163 -37 -163 -20 0 -199 186 -256 266
-151 212 -169 427 -44 546 20 20 51 43 67 51 44 24 120 21 166 -5z m2650 -185
c13 -34 4 -72 -37 -162 -41 -89 -134 -231 -152 -231 -7 0 -15 7 -18 15 -11 28
57 278 97 357 36 71 87 81 110 21z m-925 -940 c11 -26 15 -60 12 -116 -3 -72
-6 -81 -31 -103 -31 -26 -53 -29 -108 -14 -39 11 -89 54 -89 76 0 14 179 193
193 194 4 0 15 -17 23 -37z m-1696 6 c9 -16 4 -51 -25 -167 -63 -254 -136
-408 -248 -528 -88 -95 -168 -147 -234 -152 -152 -13 -176 155 -58 413 88 193
238 341 432 425 82 35 118 38 133 9z"/>
<path d="M7425 4422 c-136 -64 -273 -332 -325 -639 -11 -63 -20 -133 -20 -155
0 -58 -13 -74 -72 -88 -180 -43 -299 -169 -357 -379 -26 -92 -47 -126 -100
-162 -55 -36 -85 -37 -107 -4 -20 30 -15 91 22 290 24 133 29 201 16 221 -12
18 -49 34 -81 34 -16 0 -51 11 -77 25 -103 55 -229 19 -346 -99 -121 -121
-178 -252 -185 -426 -4 -100 -3 -108 24 -160 33 -64 73 -94 147 -110 84 -17
179 12 267 81 20 16 41 29 45 29 5 -1 21 -19 37 -41 64 -93 143 -102 266 -31
84 48 104 51 126 18 58 -88 260 -68 392 40 49 40 63 38 106 -19 33 -44 101
-77 155 -77 56 0 140 30 197 71 75 54 99 69 111 69 7 0 38 -21 70 -46 77 -60
117 -80 191 -95 115 -24 225 9 389 116 46 30 89 55 94 55 5 0 16 -15 24 -34
19 -45 79 -111 116 -126 71 -29 188 0 322 81 l38 23 37 -41 c55 -58 95 -76
173 -75 80 0 138 20 206 72 29 22 57 40 61 40 4 -1 20 -19 36 -41 58 -84 136
-101 242 -51 72 35 154 120 175 181 11 35 12 53 1 104 -20 100 -31 99 -111 -6
-67 -88 -137 -121 -171 -80 -21 24 -15 135 15 292 26 135 32 207 18 227 -11
18 -49 34 -77 34 -14 0 -51 12 -82 26 -47 23 -65 26 -118 21 -153 -12 -311
-167 -386 -379 -34 -96 -42 -106 -135 -164 -128 -80 -170 -70 -168 40 1 98 35
187 130 346 215 360 294 567 294 775 0 115 -18 168 -68 203 -110 79 -301 -67
-434 -333 -76 -151 -112 -313 -148 -679 -12 -118 -27 -221 -35 -236 -22 -42
-74 -83 -177 -139 -102 -55 -179 -78 -223 -67 -15 4 -41 21 -58 37 l-30 31 81
32 c139 56 195 106 233 206 46 122 34 235 -32 294 -44 40 -85 50 -177 44 -171
-12 -272 -118 -323 -335 -27 -121 -33 -133 -87 -185 -105 -102 -203 -117 -231
-37 -26 76 -8 143 136 509 148 375 178 484 172 637 -8 185 -107 289 -224 235z
m61 -228 c27 -108 -69 -516 -165 -701 -17 -33 -20 -35 -27 -19 -9 23 3 284 17
380 21 142 73 308 110 353 20 23 58 16 65 -13z m1371 -10 c9 -25 -14 -137 -59
-273 -42 -130 -180 -418 -186 -389 -5 27 27 256 49 343 11 44 42 125 68 180
64 132 111 183 128 139z m-813 -770 c36 -36 5 -142 -53 -183 -37 -27 -110 -53
-123 -45 -17 10 -3 129 19 166 38 65 121 98 157 62z m-1774 -12 c0 -32 -39
-235 -56 -292 -52 -178 -129 -238 -175 -137 -35 78 -19 220 36 306 30 48 88
99 139 122 51 23 56 23 56 1z m3110 0 c0 -39 -33 -211 -56 -291 -51 -176 -123
-238 -172 -148 -12 24 -17 56 -17 122 0 76 4 98 26 146 35 74 89 132 152 163
61 31 67 32 67 8z m-2294 -28 c4 -14 4 -78 2 -142 -3 -91 -9 -128 -26 -165
-37 -83 -110 -130 -176 -113 -34 8 -48 61 -36 130 15 80 82 205 141 264 58 58
85 66 95 26z"/>
<path d="M4888 4269 c-74 -11 -201 -53 -258 -86 -70 -41 -154 -127 -184 -189
-56 -114 -56 -251 -1 -276 37 -17 70 11 110 96 56 118 147 188 305 233 52 14
101 18 245 18 311 0 459 -45 516 -157 53 -103 -18 -221 -165 -275 -27 -10 -92
-17 -186 -20 -201 -6 -190 -2 -190 -69 0 -45 4 -59 25 -79 13 -14 31 -25 39
-25 8 0 68 -19 132 -42 172 -61 224 -115 224 -230 -1 -131 -104 -241 -259
-278 -72 -17 -207 -8 -295 20 l-69 22 6 211 c8 299 43 484 126 678 23 52 41
102 41 111 0 25 -71 58 -123 58 -61 0 -88 -28 -147 -153 -80 -167 -128 -367
-150 -622 -14 -167 -13 -364 3 -394 33 -65 480 -157 641 -131 189 30 341 149
407 318 34 86 33 217 -3 293 -32 69 -87 132 -146 166 l-44 26 73 27 c105 38
148 62 207 115 68 61 105 138 105 220 0 200 -201 340 -581 405 -120 21 -297
25 -404 9z"/>
<path d="M9200 3930 c0 -5 11 -10 25 -10 24 0 25 -2 25 -75 0 -60 3 -75 15
-75 12 0 15 15 15 75 0 73 1 75 25 75 14 0 25 5 25 10 0 6 -28 10 -65 10 -37
0 -65 -4 -65 -10z"/>
<path d="M9360 3855 c0 -50 4 -85 10 -85 6 0 10 30 11 68 l0 67 15 -40 c9 -22
21 -53 26 -68 6 -15 16 -26 22 -24 6 2 22 35 36 73 l25 69 3 -72 c4 -102 22
-92 22 12 0 75 -2 85 -18 85 -13 0 -24 -17 -41 -65 -13 -36 -26 -63 -30 -60
-4 2 -16 31 -26 65 -14 45 -23 60 -37 60 -16 0 -18 -9 -18 -85z"/>
<path d="M2021 2153 c-52 -27 -73 -63 -73 -121 0 -67 25 -108 79 -128 88 -34
173 27 173 125 0 25 -6 57 -13 70 -30 59 -108 84 -166 54z m99 -53 c15 -15 20
-33 20 -70 0 -74 -44 -110 -100 -80 -23 13 -41 72 -33 112 11 54 75 76 113 38z"/>
<path d="M2901 2157 c-43 -15 -71 -52 -78 -105 -7 -53 1 -83 32 -120 32 -39
90 -50 134 -27 17 9 31 11 31 5 0 -5 9 -10 20 -10 18 0 20 7 20 75 l0 75 -55
0 c-52 0 -55 -1 -55 -25 0 -21 5 -25 30 -25 34 0 36 -6 14 -38 -22 -32 -67
-29 -94 6 -18 22 -21 36 -17 76 3 32 11 54 23 63 26 19 72 16 91 -7 19 -22 63
-27 63 -7 0 25 -32 56 -68 67 -45 12 -48 12 -91 -3z"/>
<path d="M5134 2163 c-32 -6 -57 -39 -57 -74 0 -39 16 -55 83 -77 46 -16 55
-23 55 -43 0 -33 -51 -39 -85 -9 -28 24 -55 22 -55 -4 0 -31 50 -61 101 -60
60 1 98 30 102 76 4 43 -18 64 -90 88 -39 13 -53 22 -53 36 0 25 56 32 75 10
14 -18 60 -22 60 -5 0 23 -21 47 -51 58 -32 11 -46 12 -85 4z"/>
<path d="M6153 2155 c-37 -16 -51 -53 -37 -94 7 -20 22 -30 64 -44 69 -23 88
-40 70 -61 -18 -22 -63 -20 -85 4 -36 39 -79 18 -51 -25 22 -33 84 -49 136
-35 43 12 60 33 60 77 0 42 -18 61 -80 80 -43 14 -56 23 -58 41 -3 19 1 22 31
22 22 0 37 -6 41 -15 3 -9 18 -15 35 -15 27 0 30 2 22 23 -8 24 -64 57 -96 57
-11 -1 -34 -7 -52 -15z"/>
<path d="M7035 2156 c-56 -25 -70 -51 -70 -126 0 -59 3 -72 24 -94 56 -59 156
-53 194 12 l19 32 -30 0 c-16 0 -37 -9 -47 -20 -44 -49 -105 -9 -105 68 0 27
7 57 16 70 20 28 68 29 91 2 10 -11 28 -20 41 -20 18 0 23 5 20 21 -7 49 -96
81 -153 55z"/>
<path d="M2320 2030 l0 -130 30 0 c29 0 30 1 30 50 l0 50 35 0 c38 0 40 -3 50
-62 5 -32 10 -38 30 -38 23 0 25 4 25 46 0 25 -4 54 -10 64 -7 12 -5 27 5 48
18 35 7 75 -24 91 -11 6 -54 11 -95 11 l-76 0 0 -130z m141 74 c20 -24 -1 -48
-45 -52 -35 -3 -36 -2 -36 32 0 34 2 36 34 36 18 0 39 -7 47 -16z"/>
<path d="M2640 2030 l0 -130 30 0 30 0 0 130 0 130 -30 0 -30 0 0 -130z"/>
<path d="M3190 2030 l0 -130 30 0 30 0 0 130 0 130 -30 0 -30 0 0 -130z"/>
<path d="M3380 2031 l0 -131 25 0 c25 0 25 0 25 98 l1 97 52 -98 c52 -97 52
-97 87 -95 l35 3 3 128 3 127 -32 0 -31 0 4 -89 c1 -49 1 -87 -2 -84 -3 2 -26
41 -51 86 -44 77 -49 82 -83 85 l-36 3 0 -130z"/>
<path d="M3795 2148 c-3 -7 -20 -58 -39 -113 -19 -55 -37 -108 -41 -117 -6
-15 -2 -18 24 -18 27 0 32 4 38 30 5 28 8 30 55 30 46 0 51 -2 61 -30 9 -23
17 -30 39 -30 15 0 28 4 28 8 0 4 -19 62 -43 127 l-44 120 -36 3 c-24 2 -39
-1 -42 -10z m75 -135 c0 -2 -16 -3 -35 -3 -19 0 -35 1 -35 3 0 2 7 25 16 52
l17 48 18 -49 c11 -27 19 -50 19 -51z"/>
<path d="M4070 2030 l0 -130 89 0 c85 0 101 5 101 35 0 2 -30 5 -67 7 -52 2
-68 7 -69 18 -1 8 -2 57 -3 108 -1 91 -1 92 -26 92 l-25 0 0 -130z"/>
<path d="M4460 2141 c0 -16 8 -20 38 -23 l37 -3 3 -107 c3 -107 3 -108 27
-108 24 0 24 1 27 108 l3 107 38 3 c29 3 37 7 37 23 0 18 -8 19 -105 19 -97 0
-105 -1 -105 -19z"/>
<path d="M4810 2156 c0 -2 -20 -60 -45 -130 l-45 -126 29 0 c23 0 31 6 40 30
9 28 13 30 60 30 47 0 50 -2 56 -30 5 -25 11 -30 36 -30 16 0 29 5 29 11 0 6
-19 65 -42 130 l-43 119 -37 0 c-21 0 -38 -2 -38 -4z m64 -123 c7 -21 4 -23
-27 -23 l-35 0 16 51 17 51 11 -28 c6 -16 15 -39 18 -51z"/>
<path d="M5370 2141 c0 -16 8 -20 38 -23 l37 -3 3 -107 c3 -107 3 -108 27
-108 24 0 24 1 27 108 l3 107 40 5 c28 3 41 10 43 23 3 15 -8 17 -108 17 -102
0 -110 -1 -110 -19z"/>
<path d="M5690 2030 l0 -130 95 0 c88 0 95 2 95 20 0 17 -8 19 -67 22 l-68 3
-3 33 -3 32 65 0 c64 0 66 1 66 25 0 24 -2 25 -66 25 l-65 0 3 28 c3 26 5 27
71 30 59 3 67 5 67 22 0 18 -7 20 -95 20 l-95 0 0 -130z"/>
<path d="M6420 2030 l0 -130 30 0 30 0 0 130 0 130 -30 0 -30 0 0 -130z"/>
<path d="M6610 2030 l0 -130 25 0 c23 0 25 4 26 53 1 28 1 71 0 95 -1 23 0 42
3 42 2 0 27 -43 55 -95 50 -92 53 -95 86 -95 l35 0 0 130 0 130 -25 0 c-25 0
-25 -1 -25 -92 l0 -93 -52 93 c-51 91 -52 92 -90 92 l-38 0 0 -130z"/>
<path d="M7310 2030 l0 -130 95 0 c92 0 95 1 95 23 0 21 -4 22 -67 22 l-68 0
-3 33 -3 32 65 0 c64 0 66 1 66 25 0 24 -2 25 -66 25 l-65 0 3 28 c3 26 5 27
71 30 59 3 67 5 67 22 0 18 -7 20 -95 20 l-95 0 0 -130z"/>
<path d="M7783 2153 c-22 -4 -63 -46 -63 -64 0 -16 58 -10 64 7 10 26 51 13
54 -18 3 -21 -5 -32 -41 -57 -40 -27 -77 -80 -77 -110 0 -7 31 -11 89 -11 86
0 101 5 101 36 0 2 -27 4 -60 4 -33 0 -60 4 -60 9 0 5 17 21 38 36 70 53 83
80 61 129 -10 21 -58 49 -78 45 -3 -1 -16 -4 -28 -6z"/>
<path d="M8073 2149 c-43 -12 -63 -53 -63 -126 0 -69 15 -103 54 -122 40 -19
85 -4 114 39 20 30 23 44 20 98 -3 50 -9 67 -28 86 -31 30 -56 36 -97 25z m55
-51 c12 -12 17 -114 6 -142 -3 -9 -17 -16 -30 -16 -28 0 -44 31 -44 85 0 70
34 107 68 73z"/>
<path d="M8575 2146 c-17 -7 -36 -25 -43 -40 -11 -25 -10 -26 17 -26 16 0 31
6 35 15 7 20 52 19 60 -1 9 -24 10 -22 -49 -77 -32 -30 -59 -66 -64 -84 l-10
-33 95 0 c87 0 94 1 94 20 0 18 -7 20 -62 20 l-63 0 58 54 c46 43 57 59 57 85
0 32 -29 71 -54 71 -8 0 -20 2 -28 5 -7 2 -27 -2 -43 -9z"/>
<path d="M8333 2131 c-40 -20 -44 -51 -8 -51 25 0 25 -1 25 -91 l0 -90 28 3
27 3 0 120 c0 113 -1 120 -20 121 -11 1 -35 -6 -52 -15z"/>
<path d="M1960 1720 c0 -7 1150 -10 3370 -10 2240 0 3370 3 3370 10 0 7 -1130
10 -3370 10 -2220 0 -3370 -4 -3370 -10z"/>
<path d="M2939 1441 c-24 -24 -29 -38 -29 -76 0 -59 13 -83 56 -101 31 -13 39
-13 65 0 16 8 31 10 35 5 14 -23 24 -4 24 46 l0 55 -45 0 c-25 0 -45 -4 -45
-10 0 -5 14 -10 30 -10 32 0 38 -16 20 -51 -14 -25 -71 -26 -93 -1 -25 27 -23
106 3 132 26 26 64 25 89 -1 11 -12 25 -19 32 -17 9 3 5 13 -13 31 -38 38 -90
37 -129 -2z"/>
<path d="M3222 1383 c-17 -49 -34 -96 -37 -105 -5 -12 -2 -18 8 -18 8 0 20 14
26 30 9 27 14 30 51 30 37 0 43 -3 53 -30 6 -16 17 -30 24 -30 18 0 18 0 -24
112 -47 128 -60 129 -101 11z m66 8 c15 -50 16 -47 -15 -45 -30 1 -31 3 -19
52 10 42 20 41 34 -7z"/>
<path d="M3450 1382 c0 -94 10 -118 55 -122 85 -9 105 14 105 125 0 69 -3 85
-15 85 -12 0 -15 -15 -15 -76 0 -91 -10 -114 -50 -114 -44 0 -60 31 -60 117 0
42 -4 73 -10 73 -6 0 -10 -36 -10 -88z"/>
<path d="M3700 1456 c0 -9 11 -13 33 -12 l32 1 3 -93 c4 -119 22 -121 22 -2 0
97 -1 95 58 93 6 -1 12 5 12 13 0 11 -18 14 -80 14 -61 0 -80 -3 -80 -14z"/>
<path d="M3950 1365 l0 -105 70 0 c40 0 70 4 70 10 0 6 -25 10 -55 10 l-55 0
0 40 0 40 50 0 c28 0 50 5 50 10 0 6 -22 10 -50 10 -49 0 -50 1 -50 29 0 29 2
30 53 33 75 4 64 22 -15 26 l-68 3 0 -106z"/>
<path d="M4189 1458 c-6 -98 -2 -198 8 -198 8 0 13 27 15 88 l3 87 49 -83 c45
-78 69 -103 83 -89 10 11 6 201 -5 205 -7 2 -12 -26 -14 -82 l-3 -86 -50 83
c-46 75 -84 108 -86 75z"/>
<path d="M4503 1458 c-46 -22 -61 -119 -26 -167 24 -31 73 -43 108 -25 14 7
25 9 25 3 0 -5 7 -9 15 -9 12 0 15 13 15 55 l0 55 -45 0 c-25 0 -45 -4 -45
-10 0 -5 14 -10 30 -10 23 0 30 -5 30 -19 0 -28 -27 -51 -59 -51 -54 0 -83 63
-57 123 20 48 56 58 97 28 41 -31 60 -21 27 12 -29 29 -74 35 -115 15z"/>
<path d="M5077 1452 c-20 -22 -22 -55 -3 -71 7 -6 30 -17 51 -24 48 -17 64
-39 46 -61 -19 -23 -68 -20 -83 4 -13 21 -38 27 -38 10 0 -16 38 -50 58 -51
44 -3 68 4 85 23 35 41 14 76 -58 100 -32 11 -40 18 -40 38 0 34 46 41 72 11
20 -24 33 -27 33 -8 0 43 -92 64 -123 29z"/>
<path d="M5329 1441 c-24 -25 -29 -38 -29 -78 0 -58 18 -88 64 -103 69 -22
121 23 121 107 0 48 -4 58 -28 79 -40 34 -90 32 -128 -5z m106 -16 c54 -53 21
-150 -48 -143 -26 2 -36 10 -50 40 -16 32 -17 43 -7 73 19 58 64 72 105 30z"/>
<path d="M5590 1389 c0 -44 4 -89 10 -99 12 -23 61 -40 92 -33 50 12 58 30 58
125 0 48 -4 88 -9 88 -5 0 -11 -38 -12 -85 -4 -93 -11 -105 -61 -105 -38 0
-48 25 -48 114 0 61 -3 76 -15 76 -12 0 -15 -16 -15 -81z"/>
<path d="M5842 1458 c5 -12 10 -14 51 -17 15 -1 17 -12 17 -91 0 -73 3 -90 15
-90 12 0 15 17 15 90 0 65 4 90 13 91 6 1 20 2 29 3 10 0 19 6 20 11 2 6 -31
11 -80 13 -65 2 -83 0 -80 -10z"/>
<path d="M6090 1365 c0 -87 3 -105 15 -105 11 0 15 12 15 50 l0 50 55 0 55 0
0 -50 c0 -38 4 -50 15 -50 12 0 15 18 15 105 0 87 -3 105 -15 105 -11 0 -15
-12 -15 -45 l0 -45 -55 0 -55 0 0 45 c0 33 -4 45 -15 45 -12 0 -15 -18 -15
-105z"/>
<path d="M6495 1458 c-34 -96 -65 -188 -65 -192 0 -3 6 -6 14 -6 8 0 17 14 21
30 6 28 10 30 51 30 41 0 46 -3 55 -30 6 -16 18 -30 26 -30 10 0 13 6 9 16 -4
9 -21 56 -39 105 -24 66 -37 89 -50 89 -10 0 -20 -6 -22 -12z m51 -105 c-9
-10 -56 -10 -56 0 0 5 5 28 12 50 l12 40 18 -43 c10 -24 16 -45 14 -47z"/>
<path d="M6700 1365 c0 -87 3 -105 15 -105 11 0 15 12 15 45 l0 45 50 0 c38 0
50 4 50 15 0 11 -12 15 -51 15 l-50 0 3 32 c3 29 6 32 38 33 61 3 70 5 70 15
0 6 -30 10 -70 10 l-70 0 0 -105z"/>
<path d="M6930 1365 c0 -87 3 -105 15 -105 11 0 15 12 15 45 0 45 0 45 35 45
38 0 55 -20 55 -64 0 -14 5 -26 10 -26 13 0 13 87 0 95 -7 4 -5 14 5 28 20 29
19 43 -5 67 -15 15 -33 20 -75 20 l-55 0 0 -105z m119 50 c4 -24 -25 -45 -61
-45 -25 0 -28 3 -28 34 0 28 4 35 23 38 32 6 61 -7 66 -27z"/>
<path d="M7180 1365 c0 -87 3 -105 15 -105 12 0 15 18 15 105 0 87 -3 105 -15
105 -12 0 -15 -18 -15 -105z"/>
<path d="M7339 1441 c-70 -71 -9 -206 83 -184 29 7 58 32 58 50 0 19 -13 16
-33 -7 -23 -27 -71 -26 -91 2 -23 33 -21 99 4 126 26 28 50 28 84 1 38 -30 57
-19 24 14 -38 38 -90 37 -129 -2z"/>
<path d="M7636 1462 c-3 -5 -21 -52 -40 -105 -24 -68 -30 -97 -21 -97 7 0 18
14 25 30 11 27 17 30 55 30 39 0 44 -3 54 -30 5 -16 17 -30 25 -30 12 0 11 12
-11 68 -14 37 -31 83 -38 102 -12 34 -37 51 -49 32z m42 -113 c-7 -4 -45 -4
-55 0 -1 1 5 22 14 48 l16 46 17 -44 c9 -24 12 -47 8 -50z"/>
<path d="M4833 1363 c-7 -3 -13 -18 -13 -34 0 -26 4 -29 30 -29 26 0 30 3 30
29 0 29 -20 43 -47 34z"/>
</g>
</svg>
