<?xml version="1.0" standalone="no"?>
<!DOCTYPE svg PUBLIC "-//W3C//DTD SVG 20010904//EN"
 "http://www.w3.org/TR/2001/REC-SVG-20010904/DTD/svg10.dtd">
<svg  version="1.0" xmlns="http://www.w3.org/2000/svg"
 width="192.000000pt" height="166.000000pt" viewBox="0 0 192.000000 166.000000"
 preserveAspectRatio="xMidYMid meet">

<g transform="translate(0.000000,166.000000) scale(0.100000,-0.100000)"
fill="#ffff" stroke="#ffff">
<path d="M670 1131 c-101 -15 -163 -74 -163 -155 0 -56 21 -96 65 -125 l37
-24 -41 -21 c-50 -25 -77 -59 -84 -108 -15 -88 29 -162 114 -195 42 -16 81
-18 337 -18 284 0 291 0 338 24 26 12 59 38 73 56 59 77 32 198 -53 240 -23
11 -42 22 -42 25 0 3 14 12 31 20 46 23 70 74 65 138 -4 62 -29 94 -97 126
-41 19 -64 21 -290 22 -135 1 -265 -1 -290 -5z m200 -181 l0 -80 -95 0 c-88 0
-98 2 -120 25 -16 15 -25 36 -25 55 0 19 9 40 25 55 22 23 32 25 120 25 l95 0
0 -80z m320 65 c35 -18 47 -54 30 -94 -16 -40 -48 -51 -145 -51 l-85 0 0 80 0
80 85 0 c57 0 96 -5 115 -15z m-322 -337 l3 -88 -96 0 c-65 0 -105 5 -124 15
-34 17 -54 66 -42 98 19 50 64 66 176 64 l80 -2 3 -87z m302 83 c79 -16 108
-91 54 -142 -23 -22 -36 -24 -130 -27 l-104 -4 0 84 c0 47 3 88 7 91 9 10 119
8 173 -2z"/>
</g>
</svg>
